<svg xmlns="http://www.w3.org/2000/svg" width="232.484375" height="81.953125" role="img" focusable="false" viewBox="0 -2333.6 12649.2 4167.1" xmlns:xlink="http://www.w3.org/1999/xlink" aria-hidden="true" style="vertical-align: -4.148ex; text-align: center; color: rgb(51, 51, 51);"><defs><path id="MJX-66-TEX-I-1D45D" d="M23 287Q24 290 25 295T30 317T40 348T55 381T75 411T101 433T134 442Q209 442 230 378L240 387Q302 442 358 442Q423 442 460 395T497 281Q497 173 421 82T249 -10Q227 -10 210 -4Q199 1 187 11T168 28L161 36Q160 35 139 -51T118 -138Q118 -144 126 -145T163 -148H188Q194 -155 194 -157T191 -175Q188 -187 185 -190T172 -194Q170 -194 161 -194T127 -193T65 -192Q-5 -192 -24 -194H-32Q-39 -187 -39 -183Q-37 -156 -26 -148H-6Q28 -147 33 -136Q36 -130 94 103T155 350Q156 355 156 364Q156 405 131 405Q109 405 94 377T71 316T59 280Q57 278 43 278H29Q23 284 23 287ZM178 102Q200 26 252 26Q282 26 310 49T356 107Q374 141 392 215T411 325V331Q411 405 350 405Q339 405 328 402T306 393T286 380T269 365T254 350T243 336T235 326L232 322Q232 321 229 308T218 264T204 212Q178 106 178 102Z"></path><path id="MJX-66-TEX-N-AF" d="M69 544V590H430V544H69Z"></path><path id="MJX-66-TEX-I-1D464" d="M580 385Q580 406 599 424T641 443Q659 443 674 425T690 368Q690 339 671 253Q656 197 644 161T609 80T554 12T482 -11Q438 -11 404 5T355 48Q354 47 352 44Q311 -11 252 -11Q226 -11 202 -5T155 14T118 53T104 116Q104 170 138 262T173 379Q173 380 173 381Q173 390 173 393T169 400T158 404H154Q131 404 112 385T82 344T65 302T57 280Q55 278 41 278H27Q21 284 21 287Q21 293 29 315T52 366T96 418T161 441Q204 441 227 416T250 358Q250 340 217 250T184 111Q184 65 205 46T258 26Q301 26 334 87L339 96V119Q339 122 339 128T340 136T341 143T342 152T345 165T348 182T354 206T362 238T373 281Q402 395 406 404Q419 431 449 431Q468 431 475 421T483 402Q483 389 454 274T422 142Q420 131 420 107V100Q420 85 423 71T442 42T487 26Q558 26 600 148Q609 171 620 213T632 273Q632 306 619 325T593 357T580 385Z"></path><path id="MJX-66-TEX-N-3D" d="M56 347Q56 360 70 367H707Q722 359 722 347Q722 336 708 328L390 327H72Q56 332 56 347ZM56 153Q56 168 72 173H708Q722 163 722 153Q722 140 707 133H70Q56 140 56 153Z"></path><path id="MJX-66-TEX-SO-2211" d="M61 748Q64 750 489 750H913L954 640Q965 609 976 579T993 533T999 516H979L959 517Q936 579 886 621T777 682Q724 700 655 705T436 710H319Q183 710 183 709Q186 706 348 484T511 259Q517 250 513 244L490 216Q466 188 420 134T330 27L149 -187Q149 -188 362 -188Q388 -188 436 -188T506 -189Q679 -189 778 -162T936 -43Q946 -27 959 6H999L913 -249L489 -250Q65 -250 62 -248Q56 -246 56 -239Q56 -234 118 -161Q186 -81 245 -11L428 206Q428 207 242 462L57 717L56 728Q56 744 61 748Z"></path><path id="MJX-66-TEX-N-64" d="M376 495Q376 511 376 535T377 568Q377 613 367 624T316 637H298V660Q298 683 300 683L310 684Q320 685 339 686T376 688Q393 689 413 690T443 693T454 694H457V390Q457 84 458 81Q461 61 472 55T517 46H535V0Q533 0 459 -5T380 -11H373V44L365 37Q307 -11 235 -11Q158 -11 96 50T34 215Q34 315 97 378T244 442Q319 442 376 393V495ZM373 342Q328 405 260 405Q211 405 173 369Q146 341 139 305T131 211Q131 155 138 120T173 59Q203 26 251 26Q322 26 373 103V342Z"></path><path id="MJX-66-TEX-N-61" d="M137 305T115 305T78 320T63 359Q63 394 97 421T218 448Q291 448 336 416T396 340Q401 326 401 309T402 194V124Q402 76 407 58T428 40Q443 40 448 56T453 109V145H493V106Q492 66 490 59Q481 29 455 12T400 -6T353 12T329 54V58L327 55Q325 52 322 49T314 40T302 29T287 17T269 6T247 -2T221 -8T190 -11Q130 -11 82 20T34 107Q34 128 41 147T68 188T116 225T194 253T304 268H318V290Q318 324 312 340Q290 411 215 411Q197 411 181 410T156 406T148 403Q170 388 170 359Q170 334 154 320ZM126 106Q126 75 150 51T209 26Q247 26 276 49T315 109Q317 116 318 175Q318 233 317 233Q309 233 296 232T251 223T193 203T147 166T126 106Z"></path><path id="MJX-66-TEX-N-79" d="M69 -66Q91 -66 104 -80T118 -116Q118 -134 109 -145T91 -160Q84 -163 97 -166Q104 -168 111 -168Q131 -168 148 -159T175 -138T197 -106T213 -75T225 -43L242 0L170 183Q150 233 125 297Q101 358 96 368T80 381Q79 382 78 382Q66 385 34 385H19V431H26L46 430Q65 430 88 429T122 428Q129 428 142 428T171 429T200 430T224 430L233 431H241V385H232Q183 385 185 366L286 112Q286 113 332 227L376 341V350Q376 365 366 373T348 383T334 385H331V431H337H344Q351 431 361 431T382 430T405 429T422 429Q477 429 503 431H508V385H497Q441 380 422 345Q420 343 378 235T289 9T227 -131Q180 -204 113 -204Q69 -204 44 -177T19 -116Q19 -89 35 -78T69 -66Z"></path><path id="MJX-66-TEX-I-1D43E" d="M285 628Q285 635 228 637Q205 637 198 638T191 647Q191 649 193 661Q199 681 203 682Q205 683 214 683H219Q260 681 355 681Q389 681 418 681T463 682T483 682Q500 682 500 674Q500 669 497 660Q496 658 496 654T495 648T493 644T490 641T486 639T479 638T470 637T456 637Q416 636 405 634T387 623L306 305Q307 305 490 449T678 597Q692 611 692 620Q692 635 667 637Q651 637 651 648Q651 650 654 662T659 677Q662 682 676 682Q680 682 711 681T791 680Q814 680 839 681T869 682Q889 682 889 672Q889 650 881 642Q878 637 862 637Q787 632 726 586Q710 576 656 534T556 455L509 418L518 396Q527 374 546 329T581 244Q656 67 661 61Q663 59 666 57Q680 47 717 46H738Q744 38 744 37T741 19Q737 6 731 0H720Q680 3 625 3Q503 3 488 0H478Q472 6 472 9T474 27Q478 40 480 43T491 46H494Q544 46 544 71Q544 75 517 141T485 216L427 354L359 301L291 248L268 155Q245 63 245 58Q245 51 253 49T303 46H334Q340 37 340 35Q340 19 333 5Q328 0 317 0Q314 0 280 1T180 2Q118 2 85 2T49 1Q31 1 31 11Q31 13 34 25Q38 41 42 43T65 46Q92 46 125 49Q139 52 144 61Q147 65 216 339T285 628Z"></path><path id="MJX-66-TEX-LO-28" d="M180 96T180 250T205 541T266 770T353 944T444 1069T527 1150H555Q561 1144 561 1141Q561 1137 545 1120T504 1072T447 995T386 878T330 721T288 513T272 251Q272 133 280 56Q293 -87 326 -209T399 -405T475 -531T536 -609T561 -640Q561 -643 555 -649H527Q483 -612 443 -568T353 -443T266 -270T205 -41Z"></path><path id="MJX-66-TEX-I-1D703" d="M35 200Q35 302 74 415T180 610T319 704Q320 704 327 704T339 705Q393 701 423 656Q462 596 462 495Q462 380 417 261T302 66T168 -10H161Q125 -10 99 10T60 63T41 130T35 200ZM383 566Q383 668 330 668Q294 668 260 623T204 521T170 421T157 371Q206 370 254 370L351 371Q352 372 359 404T375 484T383 566ZM113 132Q113 26 166 26Q181 26 198 36T239 74T287 161T335 307L340 324H145Q145 321 136 286T120 208T113 132Z"></path><path id="MJX-66-TEX-N-2212" d="M84 237T84 250T98 270H679Q694 262 694 250T679 230H98Q84 237 84 250Z"></path><path id="MJX-66-TEX-I-1D45A" d="M21 287Q22 293 24 303T36 341T56 388T88 425T132 442T175 435T205 417T221 395T229 376L231 369Q231 367 232 367L243 378Q303 442 384 442Q401 442 415 440T441 433T460 423T475 411T485 398T493 385T497 373T500 364T502 357L510 367Q573 442 659 442Q713 442 746 415T780 336Q780 285 742 178T704 50Q705 36 709 31T724 26Q752 26 776 56T815 138Q818 149 821 151T837 153Q857 153 857 145Q857 144 853 130Q845 101 831 73T785 17T716 -10Q669 -10 648 17T627 73Q627 92 663 193T700 345Q700 404 656 404H651Q565 404 506 303L499 291L466 157Q433 26 428 16Q415 -11 385 -11Q372 -11 364 -4T353 8T350 18Q350 29 384 161L420 307Q423 322 423 345Q423 404 379 404H374Q288 404 229 303L222 291L189 157Q156 26 151 16Q138 -11 108 -11Q95 -11 87 -5T76 7T74 17Q74 30 112 181Q151 335 151 342Q154 357 154 369Q154 405 129 405Q107 405 92 377T69 316T57 280Q55 278 41 278H27Q21 284 21 287Z"></path><path id="MJX-66-TEX-I-1D441" d="M234 637Q231 637 226 637Q201 637 196 638T191 649Q191 676 202 682Q204 683 299 683Q376 683 387 683T401 677Q612 181 616 168L670 381Q723 592 723 606Q723 633 659 637Q635 637 635 648Q635 650 637 660Q641 676 643 679T653 683Q656 683 684 682T767 680Q817 680 843 681T873 682Q888 682 888 672Q888 650 880 642Q878 637 858 637Q787 633 769 597L620 7Q618 0 599 0Q585 0 582 2Q579 5 453 305L326 604L261 344Q196 88 196 79Q201 46 268 46H278Q284 41 284 38T282 19Q278 6 272 0H259Q228 2 151 2Q123 2 100 2T63 2T46 1Q31 1 31 10Q31 14 34 26T39 40Q41 46 62 46Q130 49 150 85Q154 91 221 362L289 634Q287 635 234 637Z"></path><path id="MJX-66-TEX-LO-29" d="M35 1138Q35 1150 51 1150H56H69Q113 1113 153 1069T243 944T330 771T391 541T416 250T391 -40T330 -270T243 -443T152 -568T69 -649H56Q43 -649 39 -647T35 -637Q65 -607 110 -548Q283 -316 316 56Q324 133 324 251Q324 368 316 445Q278 877 48 1123Q36 1137 35 1138Z"></path><path id="MJX-66-TEX-V-2032" d="M79 43Q73 43 52 49T30 61Q30 68 85 293T146 528Q161 560 198 560Q218 560 240 545T262 501Q262 496 260 486Q259 479 173 263T84 45T79 43Z"></path></defs><g stroke="currentColor" fill="currentColor" stroke-width="0" transform="scale(1,-1)"><g data-mml-node="math"><g data-mml-node="msub"><g data-mml-node="TeXAtom" data-mjx-texclass="ORD"><g data-mml-node="mover"><g data-mml-node="mi"><use data-c="1D45D" href="#MJX-66-TEX-I-1D45D"></use></g><g data-mml-node="mo" transform="translate(334.8,3) translate(-250 0)"><use data-c="AF" href="#MJX-66-TEX-N-AF"></use></g></g></g><g data-mml-node="mi" transform="translate(536,-150) scale(0.707)"><use data-c="1D464" href="#MJX-66-TEX-I-1D464"></use></g></g><g data-mml-node="mo" transform="translate(1370.1,0)"><use data-c="3D" href="#MJX-66-TEX-N-3D"></use></g><g data-mml-node="mfrac" transform="translate(2425.8,0)"><g data-mml-node="mrow" transform="translate(1313.6,1109.5)"><g data-mml-node="munder"><g data-mml-node="mo"><use data-c="2211" href="#MJX-66-TEX-SO-2211"></use></g><g data-mml-node="TeXAtom" transform="translate(1089,-285.4) scale(0.707)" data-mjx-texclass="ORD"><g data-mml-node="mtext"><use data-c="64" href="#MJX-66-TEX-N-64"></use><use data-c="61" href="#MJX-66-TEX-N-61" transform="translate(556,0)"></use><use data-c="79" href="#MJX-66-TEX-N-79" transform="translate(1056,0)"></use></g></g></g><g data-mml-node="mi" transform="translate(2425.7,0)"><use data-c="1D43E" href="#MJX-66-TEX-I-1D43E"></use></g><g data-mml-node="mrow" transform="translate(3481.4,0)"><g data-mml-node="mo" transform="translate(0 -0.5)"><use data-c="28" href="#MJX-66-TEX-LO-28"></use></g><g data-mml-node="mfrac" transform="translate(597,0)"><g data-mml-node="mrow" transform="translate(220,548.1) scale(0.707)"><g data-mml-node="msub"><g data-mml-node="mi"><use data-c="1D703" href="#MJX-66-TEX-I-1D703"></use></g><g data-mml-node="mi" transform="translate(502,-150) scale(0.707)"><use data-c="1D464" href="#MJX-66-TEX-I-1D464"></use></g></g><g data-mml-node="mo" transform="translate(1058.3,0)"><use data-c="2212" href="#MJX-66-TEX-N-2212"></use></g><g data-mml-node="msub" transform="translate(1836.3,0)"><g data-mml-node="TeXAtom" data-mjx-texclass="ORD"><g data-mml-node="mover"><g data-mml-node="mi"><use data-c="1D703" href="#MJX-66-TEX-I-1D703"></use></g><g data-mml-node="mo" transform="translate(317.8,266) translate(-250 0)"><use data-c="AF" href="#MJX-66-TEX-N-AF"></use></g></g></g><g data-mml-node="TeXAtom" transform="translate(502,-150) scale(0.707)" data-mjx-texclass="ORD"><g data-mml-node="mtext"><use data-c="64" href="#MJX-66-TEX-N-64"></use><use data-c="61" href="#MJX-66-TEX-N-61" transform="translate(556,0)"></use><use data-c="79" href="#MJX-66-TEX-N-79" transform="translate(1056,0)"></use></g></g></g></g><g data-mml-node="msub" transform="translate(898.6,-345) scale(0.707)"><g data-mml-node="mi"><use data-c="1D45A" href="#MJX-66-TEX-I-1D45A"></use></g><g data-mml-node="mi" transform="translate(911,-150) scale(0.707)"><use data-c="1D441" href="#MJX-66-TEX-I-1D441"></use></g></g><rect width="2680.8" height="60" x="120" y="220"></rect></g><g data-mml-node="mo" transform="translate(3517.8,0) translate(0 -0.5)"><use data-c="29" href="#MJX-66-TEX-LO-29"></use></g></g></g><g data-mml-node="mrow" transform="translate(220,-1184.1)"><g data-mml-node="munder"><g data-mml-node="mo"><use data-c="2211" href="#MJX-66-TEX-SO-2211"></use></g><g data-mml-node="TeXAtom" transform="translate(1089,-285.4) scale(0.707)" data-mjx-texclass="ORD"><g data-mml-node="msup"><g data-mml-node="mi"><use data-c="1D464" href="#MJX-66-TEX-I-1D464"></use></g><g data-mml-node="mo" transform="translate(749,289) scale(0.707)"><use data-c="2032" href="#MJX-66-TEX-V-2032"></use></g></g></g></g><g data-mml-node="munder" transform="translate(2008.1,0)"><g data-mml-node="mo"><use data-c="2211" href="#MJX-66-TEX-SO-2211"></use></g><g data-mml-node="TeXAtom" transform="translate(1089,-285.4) scale(0.707)" data-mjx-texclass="ORD"><g data-mml-node="mtext"><use data-c="64" href="#MJX-66-TEX-N-64"></use><use data-c="61" href="#MJX-66-TEX-N-61" transform="translate(556,0)"></use><use data-c="79" href="#MJX-66-TEX-N-79" transform="translate(1056,0)"></use></g></g></g><g data-mml-node="mi" transform="translate(4433.9,0)"><use data-c="1D43E" href="#MJX-66-TEX-I-1D43E"></use></g><g data-mml-node="mrow" transform="translate(5489.5,0)"><g data-mml-node="mo" transform="translate(0 -0.5)"><use data-c="28" href="#MJX-66-TEX-LO-28"></use></g><g data-mml-node="mfrac" transform="translate(597,0)"><g data-mml-node="mrow" transform="translate(220,548.1) scale(0.707)"><g data-mml-node="msub"><g data-mml-node="mi"><use data-c="1D703" href="#MJX-66-TEX-I-1D703"></use></g><g data-mml-node="TeXAtom" transform="translate(502,-246.7) scale(0.707)" data-mjx-texclass="ORD"><g data-mml-node="msup"><g data-mml-node="mi"><use data-c="1D464" href="#MJX-66-TEX-I-1D464"></use></g><g data-mml-node="mo" transform="translate(749,289)"><use data-c="2032" href="#MJX-66-TEX-V-2032"></use></g></g></g></g><g data-mml-node="mo" transform="translate(1311.4,0)"><use data-c="2212" href="#MJX-66-TEX-N-2212"></use></g><g data-mml-node="msub" transform="translate(2089.4,0)"><g data-mml-node="TeXAtom" data-mjx-texclass="ORD"><g data-mml-node="mover"><g data-mml-node="mi"><use data-c="1D703" href="#MJX-66-TEX-I-1D703"></use></g><g data-mml-node="mo" transform="translate(317.8,266) translate(-250 0)"><use data-c="AF" href="#MJX-66-TEX-N-AF"></use></g></g></g><g data-mml-node="TeXAtom" transform="translate(502,-150) scale(0.707)" data-mjx-texclass="ORD"><g data-mml-node="mtext"><use data-c="64" href="#MJX-66-TEX-N-64"></use><use data-c="61" href="#MJX-66-TEX-N-61" transform="translate(556,0)"></use><use data-c="79" href="#MJX-66-TEX-N-79" transform="translate(1056,0)"></use></g></g></g></g><g data-mml-node="msub" transform="translate(988.1,-345) scale(0.707)"><g data-mml-node="mi"><use data-c="1D45A" href="#MJX-66-TEX-I-1D45A"></use></g><g data-mml-node="mi" transform="translate(911,-150) scale(0.707)"><use data-c="1D441" href="#MJX-66-TEX-I-1D441"></use></g></g><rect width="2859.8" height="60" x="120" y="220"></rect></g><g data-mml-node="mo" transform="translate(3696.8,0) translate(0 -0.5)"><use data-c="29" href="#MJX-66-TEX-LO-29"></use></g></g></g><rect width="9983.3" height="60" x="120" y="220"></rect></g></g></g></svg>